<svg width="20" height="20" viewBox="0 0 20 20" fill="none" xmlns="http://www.w3.org/2000/svg">
<path d="M10.0004 1.73169C8.90786 0.618099 7.47776 5.17434e-05 5.99349 0C5.20789 0.000906638 4.4302 0.174013 3.70518 0.509357C2.98016 0.844701 2.32213 1.33566 1.76896 1.95398C-0.590488 4.58042 -0.589485 8.68845 1.77096 11.3038L9.12304 19.4532C9.29351 19.7855 9.62241 20 10.0004 20C10.1557 19.9983 10.3084 19.9563 10.4463 19.8774C10.5842 19.7984 10.7035 19.6847 10.7946 19.5454L18.2299 11.3038C20.5904 8.68734 20.5904 4.58042 18.2279 1.94954C17.675 1.33235 17.0175 0.842388 16.2932 0.507817C15.5689 0.173246 14.7921 0.000666452 14.0074 0C12.5232 0.000268933 11.0931 0.618287 10.0004 1.73169ZM9.12304 18C10.6903 19.7461 18.3783 7.99489 16.812 9.73213L10.0004 17.2824L3.18883 9.73213C1.62256 7.99489 8.43673 19.2417 10 17.5C10.7621 16.6597 8.95214 18.5 10 18.5C11.0479 18.5 9.24393 11.1619 10 12L9.2915 4.07914C9.38454 4.18245 8.87835 8.44408 9 8.5C9.12165 8.55592 10.9996 19.595 11 6C11.1317 6 10.2625 4.37624 10.3842 4.32032C10.5058 4.2644 9.26239 13.1033 9.35543 13L9.5 11.6317C11.0161 9.95452 7.60891 16.3294 9.12304 18Z" fill="#004F9A"/>
</svg>
