<svg width="45" height="45" viewBox="0 0 45 45" fill="none" xmlns="http://www.w3.org/2000/svg">
<g clip-path="url(#clip0_56_72)">
<path d="M30.023 27.977C29.5546 27.5284 29.0988 27.0669 28.656 26.593C28.284 26.215 28.06 25.94 28.06 25.94L25.26 24.603C26.381 23.3316 26.9997 21.695 27 20C27 16.141 23.86 13 20 13C16.14 13 13 16.141 13 20C13 23.859 16.14 27 20 27C21.763 27 23.37 26.34 24.603 25.261L25.94 28.061C25.94 28.061 26.215 28.285 26.593 28.657C26.98 29.02 27.489 29.511 27.977 30.024L29.335 31.416L29.939 32.062L32.06 29.941L31.414 29.337C31.035 28.965 30.529 28.471 30.023 27.977ZM20 25C17.243 25 15 22.757 15 20C15 17.243 17.243 15 20 15C22.757 15 25 17.243 25 20C25 22.757 22.757 25 20 25Z" fill="#004F9A"/>
</g>
<defs>
<clipPath id="clip0_56_72">
<rect width="45" height="45" fill="white"/>
</clipPath>
</defs>
</svg>
