<svg width="119" height="19" viewBox="0 0 119 19" fill="none" xmlns="http://www.w3.org/2000/svg">
<path d="M9.51056 5.72205e-06L11.7557 6.90984H19.0211L13.1433 11.1803L15.3884 18.0902L9.51056 13.8197L3.63271 18.0902L5.87785 11.1803L0 6.90984H7.26542L9.51056 5.72205e-06Z" fill="#F4B734"/>
<path d="M34.5 5.72205e-06L36.7451 6.90984H44.0106L38.1327 11.1803L40.3778 18.0902L34.5 13.8197L28.6221 18.0902L30.8673 11.1803L24.9894 6.90984H32.2549L34.5 5.72205e-06Z" fill="#F4B734"/>
<path d="M9.51056 5.72205e-06L11.7557 6.90984H19.0211L13.1433 11.1803L15.3884 18.0902L9.51056 13.8197L3.63271 18.0902L5.87785 11.1803L0 6.90984H7.26542L9.51056 5.72205e-06Z" fill="#F4B734"/>
<path d="M9.51056 5.72205e-06L11.7557 6.90984H19.0211L13.1433 11.1803L15.3884 18.0902L9.51056 13.8197L3.63271 18.0902L5.87785 11.1803L0 6.90984H7.26542L9.51056 5.72205e-06Z" fill="#F4B734"/>
<path d="M58.5211 0L60.7663 6.90983H68.0317L62.1538 11.1803L64.399 18.0902L58.5211 13.8197L52.6433 18.0902L54.8884 11.1803L49.0106 6.90983H56.276L58.5211 0Z" fill="#F4B734"/>
<path d="M83.5106 0L85.7557 6.90983H93.0211L87.1433 11.1803L89.3884 18.0902L83.5106 13.8197L77.6327 18.0902L79.8778 11.1803L74 6.90983H81.2654L83.5106 0Z" fill="#F4B734"/>
<path d="M58.5211 0L60.7663 6.90983H68.0317L62.1538 11.1803L64.399 18.0902L58.5211 13.8197L52.6433 18.0902L54.8884 11.1803L49.0106 6.90983H56.276L58.5211 0Z" fill="#F4B734"/>
<path d="M58.5211 0L60.7663 6.90983H68.0317L62.1538 11.1803L64.399 18.0902L58.5211 13.8197L52.6433 18.0902L54.8884 11.1803L49.0106 6.90983H56.276L58.5211 0Z" fill="#F4B734"/>
<path d="M108.5 5.72205e-06L110.745 6.90984H118.011L112.133 11.1803L114.378 18.0902L108.5 13.8197L102.622 18.0902L104.867 11.1803L98.9894 6.90984H106.255L108.5 5.72205e-06Z" fill="#F4B734"/>
</svg>
