<svg width="20" height="20" viewBox="0 0 20 20" fill="none" xmlns="http://www.w3.org/2000/svg">
<path d="M5.42998 11.9359L4.18831 17.3125C4.14987 17.4753 4.16141 17.6459 4.22143 17.8021C4.28146 17.9582 4.38718 18.0927 4.52479 18.1878C4.6624 18.2829 4.82549 18.3343 4.99278 18.3353C5.16006 18.3363 5.32375 18.2868 5.46248 18.1934L9.99998 15.1684L14.5375 18.1934C14.6794 18.2876 14.8468 18.3361 15.0172 18.3324C15.1875 18.3286 15.3526 18.2728 15.4903 18.1725C15.628 18.0721 15.7316 17.932 15.7873 17.7709C15.8429 17.6099 15.848 17.4357 15.8016 17.2717L14.2775 11.9384L18.0575 8.53669C18.1785 8.42768 18.265 8.28557 18.3062 8.12795C18.3473 7.97032 18.3414 7.80409 18.2891 7.64981C18.2367 7.49552 18.1404 7.35996 18.0118 7.25988C17.8833 7.15979 17.7282 7.09958 17.5658 7.08669L12.815 6.70836L10.7591 2.15752C10.6936 2.01099 10.587 1.88655 10.4523 1.79924C10.3176 1.71193 10.1605 1.66547 9.99998 1.66547C9.83945 1.66547 9.68235 1.71193 9.54764 1.79924C9.41293 1.88655 9.30637 2.01099 9.24081 2.15752L7.18498 6.70836L2.43415 7.08586C2.27453 7.0985 2.12193 7.15686 1.99461 7.25396C1.86729 7.35106 1.77064 7.48279 1.71623 7.63338C1.66181 7.78397 1.65193 7.94705 1.68777 8.10311C1.72361 8.25917 1.80365 8.40159 1.91831 8.51335L5.42998 11.9359ZM7.80748 8.33086C7.95623 8.31914 8.09908 8.26762 8.22107 8.1817C8.34305 8.09578 8.43968 7.97863 8.50081 7.84252L9.99998 4.52502L11.4991 7.84252C11.5603 7.97863 11.6569 8.09578 11.7789 8.1817C11.9009 8.26762 12.0437 8.31914 12.1925 8.33086L15.5025 8.59336L12.7766 11.0467C12.54 11.26 12.4458 11.5884 12.5325 11.895L13.5766 15.5492L10.4633 13.4734C10.3267 13.3816 10.1658 13.3327 10.0012 13.3327C9.83665 13.3327 9.6758 13.3816 9.53915 13.4734L6.28581 15.6425L7.16081 11.8542C7.1929 11.7149 7.18859 11.5696 7.14831 11.4324C7.10803 11.2952 7.03313 11.1707 6.93081 11.0709L4.39915 8.60252L7.80748 8.33086Z" fill="#F4B734"/>
</svg>
