<svg width="24" height="24" viewBox="0 0 24 20" fill="none" xmlns="http://www.w3.org/2000/svg">
<path d="M12 0C9.35831 0.0336892 6.8343 1.09807 4.96618 2.96618C3.09807 4.8343 2.03369 7.35831 2 10C2.01235 11.5389 2.37972 13.0542 3.07351 14.4279C3.7673 15.8016 4.76879 16.9967 6 17.92V18H6.1C7.79318 19.2975 9.86685 20.0006 12 20.0006C14.1332 20.0006 16.2068 19.2975 17.9 18H18V17.92C19.2312 16.9967 20.2327 15.8016 20.9265 14.4279C21.6203 13.0542 21.9877 11.5389 22 10C21.9663 7.35831 20.9019 4.8343 19.0338 2.96618C17.1657 1.09807 14.6417 0.0336892 12 0ZM8.07 16.93C8.21599 16.2614 8.58615 15.6629 9.11908 15.2336C9.65202 14.8044 10.3157 14.5702 11 14.57H13C13.6843 14.5702 14.348 14.8044 14.8809 15.2336C15.4138 15.6629 15.784 16.2614 15.93 16.93C14.7389 17.6308 13.382 18.0004 12 18.0004C10.618 18.0004 9.26113 17.6308 8.07 16.93ZM17.61 15.64C17.2296 14.7309 16.5891 13.9546 15.7689 13.4084C14.9487 12.8622 13.9854 12.5705 13 12.57H11C10.0146 12.5705 9.05127 12.8622 8.23108 13.4084C7.41088 13.9546 6.77037 14.7309 6.39 15.64C5.64066 14.903 5.0439 14.0255 4.63381 13.0578C4.22373 12.0901 4.00835 11.051 4 10C4.02594 7.88633 4.87712 5.86653 6.37183 4.37183C7.86653 2.87712 9.88633 2.02594 12 2C14.1137 2.02594 16.1335 2.87712 17.6282 4.37183C19.1229 5.86653 19.9741 7.88633 20 10C19.9916 11.051 19.7763 12.0901 19.3662 13.0578C18.9561 14.0255 18.3593 14.903 17.61 15.64Z" fill="black"/>
<path d="M12.0001 3.99999C11.4714 3.98768 10.9458 4.08272 10.4549 4.27938C9.96403 4.47604 9.51815 4.77023 9.14424 5.14414C8.77032 5.51806 8.47613 5.96394 8.27947 6.45481C8.08282 6.94568 7.98777 7.47134 8.00008 7.99999C7.98777 8.52865 8.08282 9.05431 8.27947 9.54518C8.47613 10.036 8.77032 10.4819 9.14424 10.8558C9.51815 11.2298 9.96403 11.5239 10.4549 11.7206C10.9458 11.9173 11.4714 12.0123 12.0001 12C12.5287 12.0123 13.0544 11.9173 13.5453 11.7206C14.0361 11.5239 14.482 11.2298 14.8559 10.8558C15.2298 10.4819 15.524 10.036 15.7207 9.54518C15.9174 9.05431 16.0124 8.52865 16.0001 7.99999C16.0124 7.47134 15.9174 6.94568 15.7207 6.45481C15.524 5.96394 15.2298 5.51806 14.8559 5.14414C14.482 4.77023 14.0361 4.47604 13.5453 4.27938C13.0544 4.08272 12.5287 3.98768 12.0001 3.99999ZM12.0001 9.99999C11.734 10.0129 11.4682 9.96993 11.2198 9.87397C10.9713 9.77801 10.7456 9.63114 10.5573 9.44279C10.3689 9.25445 10.2221 9.02879 10.1261 8.78032C10.0301 8.53184 9.98722 8.26604 10.0001 7.99999C9.98722 7.73394 10.0301 7.46814 10.1261 7.21967C10.2221 6.97119 10.3689 6.74554 10.5573 6.55719C10.7456 6.36884 10.9713 6.22198 11.2198 6.12602C11.4682 6.03006 11.734 5.98713 12.0001 5.99999C12.2661 5.98713 12.5319 6.03006 12.7804 6.12602C13.0289 6.22198 13.2545 6.36884 13.4429 6.55719C13.6312 6.74554 13.7781 6.97119 13.8741 7.21967C13.97 7.46814 14.0129 7.73394 14.0001 7.99999C14.0129 8.26604 13.97 8.53184 13.8741 8.78032C13.7781 9.02879 13.6312 9.25445 13.4429 9.44279C13.2545 9.63114 13.0289 9.77801 12.7804 9.87397C12.5319 9.96993 12.2661 10.0129 12.0001 9.99999Z" fill="black"/>
</svg>
