<svg width="20" height="20" viewBox="0 0 20 20" fill="none" xmlns="http://www.w3.org/2000/svg">
<path d="M4.18748 17.3125C4.15893 17.4347 4.15842 17.5618 4.18598 17.6843C4.21354 17.8068 4.26846 17.9214 4.34663 18.0196C4.4248 18.1178 4.52418 18.1971 4.63733 18.2514C4.75048 18.3057 4.87446 18.3337 4.99998 18.3333C5.16459 18.3334 5.32552 18.2847 5.46248 18.1933L9.99998 15.1683L14.5375 18.1933C14.6794 18.2876 14.8468 18.3361 15.0172 18.3324C15.1875 18.3286 15.3526 18.2728 15.4903 18.1724C15.628 18.0721 15.7316 17.9319 15.7873 17.7709C15.8429 17.6099 15.848 17.4356 15.8016 17.2717L14.2775 11.9383L18.0575 8.53668C18.1785 8.42767 18.265 8.28556 18.3062 8.12794C18.3473 7.97031 18.3414 7.80408 18.2891 7.6498C18.2367 7.49551 18.1404 7.35995 18.0118 7.25987C17.8833 7.15978 17.7282 7.09957 17.5658 7.08668L12.815 6.70835L10.7591 2.15751C10.6937 2.01094 10.5872 1.88645 10.4525 1.79906C10.3179 1.71167 10.1608 1.66513 10.0003 1.66504C9.83972 1.66495 9.68259 1.71132 9.54783 1.79856C9.41308 1.8858 9.30645 2.01018 9.24081 2.15668L7.18498 6.70835L2.43415 7.08585C2.27453 7.09849 2.12193 7.15685 1.99461 7.25395C1.86729 7.35105 1.77064 7.48278 1.71623 7.63337C1.66181 7.78396 1.65193 7.94704 1.68777 8.1031C1.72361 8.25916 1.80365 8.40158 1.91831 8.51334L5.42998 11.9358L4.18748 17.3125ZM9.99998 4.52418L11.7016 8.29168L12.1916 8.33084L15.5025 8.59335L12.7766 11.0467L12.7758 11.0483L12.39 11.395L12.5325 11.8925V11.895L13.5766 15.5492L9.99998 13.165V4.52418Z" fill="#F4B734"/>
</svg>
